IKResults
version=1
nRows=11
nColumns=63
inDegrees=yes

Units are S.I. units (second, meters, Newtons, ...)
If the header above contains a line with 'inDegrees', this indicates whether rotational values are in degrees (yes) or radians (no).

endheader
time	pelvis_tilt	pelvis_list	pelvis_rotation	pelvis_tx	pelvis_ty	pelvis_tz	hip_flexion_r	hip_adduction_r	hip_rotation_r	knee_angle_r	knee_angle_r_beta	ankle_angle_r	subtalar_angle_r	mtp_angle_r	hip_flexion_l	hip_adduction_l	hip_rotation_l	knee_angle_l	knee_angle_l_beta	ankle_angle_l	subtalar_angle_l	mtp_angle_l	L5_S1_Flex_Ext	L5_S1_Lat_Bending	L5_S1_axial_rotation	L4_L5_Flex_Ext	L4_L5_Lat_Bending	L4_L5_axial_rotation	L3_L4_Flex_Ext	L3_L4_Lat_Bending	L3_L4_axial_rotation	L2_L3_Flex_Ext	L2_L3_Lat_Bending	L2_L3_axial_rotation	L1_L2_Flex_Ext	L1_L2_Lat_Bending	L1_L2_axial_rotation	L1_T12_Flex_Ext	L1_T12_Lat_Bending	L1_T12_axial_rotation	Abs_r3	Abs_r2	Abs_r1	Abs_t1	Abs_t2	neck_flexion	neck_bending	neck_rotation	arm_flex_r	arm_add_r	arm_rot_r	elbow_flex_r	pro_sup_r	wrist_flex_r	wrist_dev_r	arm_flex_l	arm_add_l	arm_rot_l	elbow_flex_l	pro_sup_l	wrist_flex_l	wrist_dev_l
      4.03333333	   -159.83808612	   -104.62786259	   -176.67849264	     -0.83070250	      0.30673912	     -0.29441498	     20.97122377	    -25.10470811	    -12.33688701	     75.50696746	      1.31784519	    -53.01270816	    -16.65992390	      0.00000000	     49.99470228	      5.56896459	    -10.03228438	     84.33368588	      1.47190049	      0.00000000	      0.00000000	      0.00000000	     -7.84192909	      2.84921852	      0.93760322	    -14.56324652	      3.78946063	      0.99620342	    -12.88350530	      6.92758990	      0.99620342	     -8.96254076	      6.92758990	      0.82040282	     -7.28201535	      5.81012640	      0.76180262	     -4.48087828	      4.41343948	      0.70320241	    -56.01411531	     32.23092970	      5.21466783	      0.00000000	      0.00000000	     28.50575815	     10.51027708	    -41.41490234	     17.71549012	    -36.65493829	     61.74033378	      0.88360799	     89.99559364	      0.00000000	      0.00000000	    -59.07497962	    -79.12724820	    -49.33384834	    105.76974437	     89.99559364	      0.00000000	      0.00000000
      4.06666667	   -171.17214931	   -104.81645495	   -185.21170959	     -0.83101700	      0.30453321	     -0.29023752	     20.83695910	    -26.89246339	    -15.70011152	     73.86080195	      1.28911418	    -45.15804816	    -10.24702652	      0.00000000	     50.18949017	      8.05446222	     -8.66569705	     86.21796836	      1.50478742	      0.00000000	      0.00000000	      0.00000000	     -7.42955209	      3.22773223	      0.71700281	    -13.79742119	      4.29288387	      0.76181549	    -12.20601113	      7.84790815	      0.76181549	     -8.49123508	      7.84790815	      0.62737746	     -6.89908207	      6.58199157	      0.58256478	     -4.24524606	      4.99975723	      0.53775211	    -53.06854763	     36.51275258	      3.98775453	      0.00000000	      0.00000000	     28.49342407	      9.33307858	    -39.76298672	     15.27375897	    -38.99961784	     60.53289634	      0.94409889	     89.99559364	      0.00000000	      0.00000000	    -39.56615065	    -77.32434022	    -28.17608861	    100.80647352	     89.99559364	      0.00000000	      0.00000000
      4.10000000	   -172.89145773	   -106.46916550	   -185.83350120	     -0.83380806	      0.30659849	     -0.28774873	     19.88415881	    -29.48709527	    -17.19920153	     72.68621197	      1.26861372	    -39.18292652	     -5.91666868	      0.00000000	     47.71656373	     10.18119624	     -9.04961745	     87.33383523	      1.52426297	      0.00000000	      0.00000000	      0.00000000	     -7.45952872	      3.31897831	      0.47779126	    -13.85309078	      4.41424116	      0.50765321	    -12.25525973	      8.06976387	      0.50765321	     -8.52549537	      8.06976387	      0.41806735	     -6.92691837	      6.76806057	      0.38820540	     -4.26237471	      5.14109741	      0.35834345	    -53.28266768	     37.54494646	      2.65733166	      0.00000000	      0.00000000	     28.48978005	      8.65130587	    -39.59037311	     14.40952168	    -39.87259435	     59.03787731	      0.91857430	     89.99559364	      0.00000000	      0.00000000	    -32.70341465	    -76.20361809	    -20.50853314	     96.53334899	     89.99559364	      0.00000000	      0.00000000
      4.13333333	   -173.68280755	   -108.28146577	   -186.16014529	     -0.83664744	      0.30954399	     -0.28429375	     19.62973477	    -32.02805742	    -18.01490831	     71.83013680	      1.25367239	    -34.96494043	     -3.16817388	      0.00000000	     45.23484589	     11.97963272	     -9.64809155	     88.29569997	      1.54105068	      0.00000000	      0.00000000	      0.00000000	     -7.54779494	      3.32957485	      0.21980346	    -14.01700999	      4.42833455	      0.23354118	    -12.40027231	      8.09552829	      0.23354118	     -8.62637484	      8.09552829	      0.19232803	     -7.00888238	      6.78966904	      0.17859031	     -4.31281003	      5.15751144	      0.16485260	    -53.91314449	     37.66481663	      1.22248092	      0.00000000	      0.00000000	     28.48587629	      8.45006374	    -39.40976343	     14.55067047	    -40.32311581	     58.75928275	      0.86248504	     89.99559364	      0.00000000	      0.00000000	    -31.15699417	    -74.80958575	    -18.51261105	     93.04489934	     89.99559364	      0.00000000	      0.00000000
      4.16666667	   -173.65060069	   -109.53146668	   -186.27827293	     -0.83854877	      0.31354135	     -0.28145354	     19.55470993	    -33.62732475	    -18.45064210	     70.77285668	      1.23521937	    -32.54292304	     -1.82832374	      0.00000000	     42.56755233	     12.98967702	     -9.98748537	     89.09418918	      1.55498695	      0.00000000	      0.00000000	      0.00000000	     -7.63820799	      3.41531500	      0.29822373	    -14.18491606	      4.54236894	      0.31686272	    -12.54881191	      8.30399688	      0.31686272	     -8.72970791	      8.30399688	      0.26094577	     -7.09283994	      6.96451034	      0.24230678	     -4.36447205	      5.29032293	      0.22366780	    -54.55895586	     38.63472629	      1.65863094	      0.00000000	      0.00000000	     28.48074315	      7.27437825	    -39.60120440	     13.51561434	    -41.46574142	     57.27382351	      0.85651299	     89.99559364	      0.00000000	      0.00000000	    -21.40196755	    -74.17585403	     -8.21770378	     88.65903211	     89.99559364	      0.00000000	      0.00000000
      4.20000000	   -173.92877455	   -110.73149946	   -187.03369400	     -0.84030981	      0.31779058	     -0.27678301	     20.42474639	    -35.01644236	    -18.40577597	     70.22985450	      1.22574219	    -31.35802179	     -1.83778451	      0.00000000	     40.69355458	     13.69370499	    -10.46403535	     90.22191337	      1.57466945	      0.00000000	      0.00000000	      0.00000000	     -7.76993175	      3.42917511	      0.22828724	    -14.42954025	      4.56080290	      0.24255519	    -12.76522087	      8.33769637	      0.24255519	     -8.88025499	      8.33769637	      0.19975133	     -7.21515862	      6.99277389	      0.18548338	     -4.43973900	      5.31179225	      0.17121543	    -55.49984548	     38.79151472	      1.26966513	      0.00000000	      0.00000000	     28.47444864	      6.83217679	    -39.75950144	     14.27887456	    -42.10350213	     57.19593860	      0.83581835	     89.99559364	      0.00000000	      0.00000000	    -21.17726186	    -72.65046630	     -7.89118395	     85.79874567	     89.99559364	      0.00000000	      0.00000000
      4.23333333	   -174.79939627	   -111.93317658	   -188.95034620	     -0.84107567	      0.32196923	     -0.27121031	     22.39586624	    -36.02992931	    -17.22868220	     69.91024529	      1.22016396	    -30.28581712	     -0.97364057	      0.00000000	     39.68114805	     14.20481384	    -11.22502789	     91.33574525	      1.59410948	      0.00000000	      0.00000000	      0.00000000	     -7.78721199	      3.46875203	      0.48693418	    -14.46163139	      4.61344019	      0.51736757	    -12.79361058	      8.43392368	      0.51736757	     -8.90000458	      8.43392368	      0.42606741	     -7.23120505	      7.07347913	      0.39563402	     -4.44961293	      5.37309689	      0.36520064	    -55.62327653	     39.23921666	      2.70818185	      0.00000000	      0.00000000	     28.46471706	      5.90252277	    -39.80485501	     13.12737480	    -43.33409424	     55.80242384	      0.83789417	     89.99559364	      0.00000000	      0.00000000	    -12.52116654	    -71.85228481	      1.48328833	     81.96648300	     89.99559364	      0.00000000	      0.00000000
      4.26666667	   -174.58694923	   -112.84040603	   -189.37684506	     -0.84144442	      0.32610806	     -0.26535586	     23.68010462	    -36.91839175	    -17.03240058	     69.79520973	      1.21815621	    -29.85970190	     -1.07261268	      0.00000000	     38.94234424	     14.68801003	    -11.51552690	     92.95262421	      1.62232934	      0.00000000	      0.00000000	      0.00000000	     -7.91204841	      3.49888668	      0.48092250	    -14.69346510	      4.65351928	      0.51098015	    -12.99870433	      8.50719307	      0.51098015	     -9.04268013	      8.50719307	      0.42080719	     -7.34712815	      7.13492971	      0.39074953	     -4.52094446	      5.41977546	      0.36069187	    -56.51497057	     39.58010588	      2.67474666	      0.00000000	      0.00000000	     28.45623826	      5.54290322	    -39.87257391	     14.11027945	    -44.18853494	     55.72415644	      0.84033444	     89.99559364	      0.00000000	      0.00000000	    -12.40549963	    -70.45675626	      1.71874667	     79.83946810	     89.99559364	      0.00000000	      0.00000000
      4.30000000	   -176.88668041	   -113.67467196	   -193.36042221	     -0.84128356	      0.33017585	     -0.25737503	     27.40971282	    -36.65778436	    -14.93695792	     70.02797987	      1.22221882	    -29.64968091	     -1.36679819	      0.00000000	     39.96677188	     14.22746936	    -12.70634052	     94.74137787	      1.65354898	      0.00000000	      0.00000000	      0.00000000	     -7.86428615	      3.52983057	      0.86821416	    -14.60476580	      4.69467465	      0.92247755	    -12.92023571	      8.58243004	      0.92247755	     -8.98809264	      8.58243004	      0.75968739	     -7.30277612	      7.19803049	      0.70542401	     -4.49365310	      5.46770755	      0.65116062	    -56.17380951	     39.93014933	      4.82874670	      0.00000000	      0.00000000	     28.43942824	      4.83544797	    -39.43687602	     13.50506441	    -45.64909703	     54.05507731	      0.85552787	     89.99559364	      0.00000000	      0.00000000	     -7.32098918	    -68.80499345	      7.22501261	     77.01867755	     89.99559364	      0.00000000	      0.00000000
      4.33333333	   -178.19422409	   -114.42415970	   -196.08109731	     -0.84076097	      0.33414907	     -0.24953005	     30.44618576	    -36.30284646	    -13.60305894	     70.36610492	      1.22812021	    -29.25454181	     -1.76556888	      0.00000000	     41.14362921	     13.74322739	    -13.70587347	     96.78936041	      1.68929302	      0.00000000	      0.00000000	      0.00000000	     -7.88334920	      3.55822799	      1.13485806	    -14.64016781	      4.73244323	      1.20578669	    -12.95155441	      8.65147554	      1.20578669	     -9.00987981	      8.65147554	      0.99300081	     -7.32047807	      7.25593852	      0.92207218	     -4.50454574	      5.51169516	      0.85114355	    -56.30997503	     40.25138668	      6.31174009	      0.00000000	      0.00000000	     28.42439913	      4.36718008	    -39.06056655	     13.90811506	    -46.98973187	     52.63142178	      0.88740425	     89.99559364	      0.00000000	      0.00000000	     -5.37174253	    -67.11759607	      9.38442878	     75.23499204	     89.99559364	      0.00000000	      0.00000000
      4.36666667	   -179.41668397	   -115.35190046	   -198.86076300	     -0.84013079	      0.33801400	     -0.24104866	     33.80265735	    -35.72470743	    -12.05819702	     70.95502457	      1.23839880	    -28.38976029	     -2.00359420	      0.00000000	     42.83538357	     13.10485557	    -14.98478347	     98.91520326	      1.72639598	      0.00000000	      0.00000000	      0.00000000	     -7.90500813	      3.55028166	      1.40254540	    -14.68039060	      4.72187460	      1.49020449	    -12.98713786	      8.63215482	      1.49020449	     -9.03463379	      8.63215482	      1.22722723	     -7.34059055	      7.23973435	      1.13956814	     -4.51692165	      5.49938629	      1.05190905	    -56.46468258	     40.16149616	      7.80053677	      0.00000000	      0.00000000	     28.40806782	      4.09041045	    -38.94083720	     14.70019188	    -48.24538139	     51.21120644	      0.91485336	     89.99559364	      0.00000000	      0.00000000	     -4.50501778	    -65.40417801	     10.19534172	     74.19824171	     89.99559364	      0.00000000	      0.00000000
